<?xml version="1.0" encoding="UTF-8"?>
<!DOCTYPE svg PUBLIC "-//W3C//DTD SVG 1.1//EN" "http://www.w3.org/Graphics/SVG/1.1/DTD/svg11.dtd">
<svg version="1.1" xmlns="http://www.w3.org/2000/svg" xmlns:xlink="http://www.w3.org/1999/xlink" x="0" y="0" width="526" height="456" viewBox="0, 0, 526, 456">
  <defs>
    <clipPath id="Clip_1">
      <path d="M0.06,0.53 L525.668,0.53 L525.668,455.94 L0.06,455.94 z"/>
    </clipPath>
  </defs>
  <g id="Layer_1">
    <g clip-path="url(#Clip_1)">
      <path d="M525.668,397.383 C525.668,429.756 427.928,456 307.36,456 C186.792,456 89.053,429.756 89.053,397.383 C89.053,365.012 186.792,338.768 307.36,338.768 C427.928,338.768 525.668,365.012 525.668,397.383" fill="#9EC73D"/>
    </g>
    <path d="M492.39,305.531 C488.322,326.368 480.976,356.353 471.5,354.502 L446,343.502 C436.522,341.653 447.526,318.405 451.593,297.567 C455.662,276.731 466.642,261.338 476.12,263.188 L482.596,264.452 C492.073,266.302 496.458,284.696 492.39,305.531" fill="#AA9873"/>
    <path d="M492.39,305.531 C488.322,326.368 480.976,356.353 471.5,354.502 L446,343.502 C436.522,341.653 447.526,318.405 451.593,297.567 C455.662,276.731 466.642,261.338 476.12,263.188 L482.596,264.452 C492.073,266.302 496.458,284.696 492.39,305.531 z" fill-opacity="0" stroke="#5B5C5B" stroke-width="5"/>
    <path d="M434.853,296.787 C429.405,297.439 421.439,290.352 416.349,288.24 C414.824,287.608 405.792,283.093 404.362,284.261 C401.639,286.484 407.834,290.791 409.001,292.923 C404.808,292.497 405.628,296.813 407.157,299.024 C409.561,302.501 412.044,307.671 415.601,309.988 C418.131,311.636 422.333,316.678 425.444,315.695 C429.838,314.304 435.163,303.954 434.853,299.969 L434.853,296.787" fill="#EC952D"/>
    <path d="M434.853,296.787 C429.405,297.439 421.439,290.352 416.349,288.24 C414.824,287.608 405.792,283.093 404.362,284.261 C401.639,286.484 407.834,290.791 409.001,292.923 C404.808,292.497 405.628,296.813 407.157,299.024 C409.561,302.501 412.044,307.671 415.601,309.988 C418.131,311.636 422.333,316.678 425.444,315.695 C429.838,314.304 435.163,303.954 434.853,299.969 L434.853,296.787 z" fill-opacity="0" stroke="#5B5C5B" stroke-width="5" stroke-linecap="round" stroke-linejoin="round"/>
    <path d="M470.488,300.287 C473.91,294.391 468.4,281.187 463.146,277.278 C460.34,275.191 454.506,270.355 445.67,275.312 C438.013,282.969 437.171,281.288 432.757,293.156 C423.137,304.213 413.019,322.92 430.034,332.509 C439.458,337.819 449.292,337.157 459.708,337.193 C467.99,337.221 473.302,335.195 475.018,326.776 C476.475,319.622 475.873,309.763 473.988,302.832 L470.488,300.287" fill="#F7C57C"/>
    <path d="M470.488,300.287 C473.91,294.391 468.4,281.187 463.146,277.278 C460.34,275.191 454.506,270.355 445.67,275.312 C438.013,282.969 437.171,281.288 432.757,293.156 C423.137,304.213 413.019,322.92 430.034,332.509 C439.458,337.819 449.292,337.157 459.708,337.193 C467.99,337.221 473.302,335.195 475.018,326.776 C476.475,319.622 475.873,309.763 473.988,302.832 L470.488,300.287 z" fill-opacity="0" stroke="#5B5C5B" stroke-width="5" stroke-linecap="round" stroke-linejoin="round"/>
    <path d="M445.523,275.536 C441.858,273.34 437.952,271.471 434.221,269.391 C433.111,272.558 436.78,277.688 437.847,280.773 C433.744,281.246 428.971,279.093 424.707,279.111 C426.914,282.891 431.183,287.448 434.419,290.432 L445.523,275.536" fill="#EB8B2D"/>
    <path d="M445.523,275.536 C441.858,273.34 437.952,271.471 434.221,269.391 C433.111,272.558 436.78,277.688 437.847,280.773 C433.744,281.246 428.971,279.093 424.707,279.111 C426.914,282.891 431.183,287.448 434.419,290.432 L445.523,275.536 z" fill-opacity="0" stroke="#5B5C5B" stroke-width="4.078"/>
    <path d="M466.034,296.787 C473.583,293.993 479.872,288.65 487.021,285.082 C490.428,283.381 494.917,280.658 498.763,280.283 C499.429,284.518 494.579,289.669 492.262,292.878 C496.684,293.682 498.973,289.806 497.865,296.516 C497.334,299.729 495.872,303.993 494.126,306.666 C491.006,311.447 484.363,316.935 478.99,319.409 C465.755,325.507 463.172,307.887 465.397,298.697 L466.034,296.787" fill="#EC952D"/>
    <path d="M466.034,296.787 C473.583,293.993 479.872,288.65 487.021,285.082 C490.428,283.381 494.917,280.658 498.763,280.283 C499.429,284.518 494.579,289.669 492.262,292.878 C496.684,293.682 498.973,289.806 497.865,296.516 C497.334,299.729 495.872,303.993 494.126,306.666 C491.006,311.447 484.363,316.935 478.99,319.409 C465.755,325.507 463.172,307.887 465.397,298.697 L466.034,296.787 z" fill-opacity="0" stroke="#5B5C5B" stroke-width="5" stroke-linecap="round" stroke-linejoin="round"/>
    <path d="M461.923,282.839 C461.923,286.996 458.602,290.366 454.505,290.366 C450.409,290.366 447.087,286.996 447.087,282.839 C447.087,278.682 450.409,275.312 454.505,275.312 C458.602,275.312 461.923,278.682 461.923,282.839" fill="#FFFFFE"/>
    <path d="M461.923,282.839 C461.923,286.996 458.602,290.366 454.505,290.366 C450.409,290.366 447.087,286.996 447.087,282.839 C447.087,278.682 450.409,275.312 454.505,275.312 C458.602,275.312 461.923,278.682 461.923,282.839 z" fill-opacity="0" stroke="#5B5C5B" stroke-width="3.356"/>
    <path d="M413.999,242.083 C412.409,256.101 410.819,270.119 409.228,284.137 M406.298,242.801 C405.31,251.505 399.747,260.517 414.626,260.668 C423.092,260.755 419.662,249.603 420.375,243.311" fill-opacity="0" stroke="#5B5C5B" stroke-width="3.263"/>
    <path d="M449.75,282.002 C451.673,280.015 454.521,281.326 455,283.752" fill-opacity="0" stroke="#5B5C5B" stroke-width="3" stroke-linecap="round" stroke-linejoin="round"/>
    <path d="M484.38,423.424 C484.38,432.122 449.787,439.173 407.116,439.173 C364.443,439.173 329.851,432.122 329.851,423.424 C329.851,414.726 364.443,407.675 407.116,407.675 C449.787,407.675 484.38,414.726 484.38,423.424" fill="#ADAEAD"/>
    <path d="M484.38,423.424 C484.38,432.122 449.787,439.173 407.116,439.173 C364.443,439.173 329.851,432.122 329.851,423.424 C329.851,414.726 364.443,407.675 407.116,407.675 C449.787,407.675 484.38,414.726 484.38,423.424 z" fill-opacity="0" stroke="#5B5C5B" stroke-width="7"/>
    <path d="M420.212,413.2 C420.212,417.06 414.99,420.189 408.546,420.189 C402.103,420.189 396.88,417.06 396.88,413.2 L396.88,385.808 C396.88,381.948 402.103,378.82 408.546,378.82 C414.99,378.82 420.212,381.948 420.212,385.808 L420.212,413.2" fill="#8B6B46"/>
    <path d="M420.212,413.2 C420.212,417.06 414.99,420.189 408.546,420.189 C402.103,420.189 396.88,417.06 396.88,413.2 L396.88,385.808 C396.88,381.948 402.103,378.82 408.546,378.82 C414.99,378.82 420.212,381.948 420.212,385.808 L420.212,413.2 z" fill-opacity="0" stroke="#5B5C5B" stroke-width="6.486"/>
    <path d="M329.316,345.069 C328.65,356.882 324.765,372.129 319.888,382.927 C327.125,380.403 335.446,380.371 341.965,384.632 C348.616,388.978 354.402,395.462 362.246,396.425 C369.441,397.306 379.412,390.556 385.771,389.496 C396.843,387.651 403.49,394.622 413.95,397.82 C430.163,402.773 439.8,392.929 442.608,390.769 C460.445,377.048 492.392,391.681 492.392,391.681 C487.867,377.315 485.05,356.622 483.907,347.609 C482.398,335.711 484.058,340.315 471.966,338.831 C442.237,335.187 412.541,335.451 382.605,335.451 C370.552,335.451 358.916,335.833 346.96,337.18 C342.642,337.666 336.027,337.585 333.422,339.978 L329.316,345.069" fill="#CDCECD"/>
    <path d="M329.316,345.069 C328.65,356.882 324.765,372.129 319.888,382.927 C327.125,380.403 335.446,380.371 341.965,384.632 C348.616,388.978 354.402,395.462 362.246,396.425 C369.441,397.306 379.412,390.556 385.771,389.496 C396.843,387.651 403.49,394.622 413.95,397.82 C430.163,402.773 439.8,392.929 442.608,390.769 C460.445,377.048 492.392,391.681 492.392,391.681 C487.867,377.315 485.05,356.622 483.907,347.609 C482.398,335.711 484.058,340.315 471.966,338.831 C442.237,335.187 412.541,335.451 382.605,335.451 C370.552,335.451 358.916,335.833 346.96,337.18 C342.642,337.666 336.027,337.585 333.422,339.978 L329.316,345.069 z" fill-opacity="0" stroke="#5B5C5B" stroke-width="8.4"/>
    <path d="M483.387,341.571 C483.387,352.57 448.878,361.488 406.311,361.488 C363.744,361.488 329.236,352.57 329.236,341.571 C329.236,330.572 363.744,321.654 406.311,321.654 C448.878,321.654 483.387,330.572 483.387,341.571" fill="#FFFFFE"/>
    <path d="M483.387,341.571 C483.387,352.57 448.878,361.488 406.311,361.488 C363.744,361.488 329.236,352.57 329.236,341.571 C329.236,330.572 363.744,321.654 406.311,321.654 C448.878,321.654 483.387,330.572 483.387,341.571 z" fill-opacity="0" stroke="#5B5C5B" stroke-width="7.647"/>
    <path d="M390.922,113.099 C393.84,103.266 392.428,90.681 393.815,80.413 C394.483,75.467 394.418,66.276 397.717,62.597 C404.528,55.002 415.352,69.383 404.465,70.25 C406.872,72.419 412.87,74.835 412.905,79.104 C412.94,83.704 405.233,89.07 401.137,89.208 C411.325,97.939 405.012,96.404 398.715,103.742 C395.973,106.937 394.334,111.56 391.856,114.967 L390.922,113.099" fill="#84BF41"/>
    <path d="M390.922,113.099 C393.84,103.266 392.428,90.681 393.815,80.413 C394.483,75.467 394.418,66.276 397.717,62.597 C404.528,55.002 415.352,69.383 404.465,70.25 C406.872,72.419 412.87,74.835 412.905,79.104 C412.94,83.704 405.233,89.07 401.137,89.208 C411.325,97.939 405.012,96.404 398.715,103.742 C395.973,106.937 394.334,111.56 391.856,114.967 L390.922,113.099 z" fill-opacity="0" stroke="#5B5C5B" stroke-width="4.9" stroke-linecap="round" stroke-linejoin="round"/>
    <path d="M389.522,107.033 C390.03,95.086 386.125,76.048 378.893,65.842 C376.616,62.63 371.918,61.641 367.475,62.699 C359.508,64.597 364.141,70.171 363.809,75.358 C363.522,79.814 360.083,82.643 363.372,87.35 C365.452,90.326 369.077,91.283 372.276,90.25 C369.508,93.971 366.188,97.132 369.135,101.411 C372.012,105.585 376.247,104.045 379.116,105.053 C382.061,106.088 384.741,108.648 386.299,112.561 C387.342,115.176 386.795,119.307 388.588,121.033 L389.522,107.033" fill="#84BF41"/>
    <path d="M389.522,107.033 C390.03,95.086 386.125,76.048 378.893,65.842 C376.616,62.63 371.918,61.641 367.475,62.699 C359.508,64.597 364.141,70.171 363.809,75.358 C363.522,79.814 360.083,82.643 363.372,87.35 C365.452,90.326 369.077,91.283 372.276,90.25 C369.508,93.971 366.188,97.132 369.135,101.411 C372.012,105.585 376.247,104.045 379.116,105.053 C382.061,106.088 384.741,108.648 386.299,112.561 C387.342,115.176 386.795,119.307 388.588,121.033 L389.522,107.033 z" fill-opacity="0" stroke="#5B5C5B" stroke-width="4.9" stroke-linecap="round" stroke-linejoin="round"/>
    <path d="M382.989,116.833 C382.612,129.156 386.6,142.947 388.938,155.155 C389.819,159.756 390.942,163.352 395.215,165.728 C408.112,172.901 408.213,157.469 408.19,148.099 C408.168,140.281 408.065,133.249 406.194,125.674 C405.311,122.101 404.04,116.352 401.083,114.01 C397.147,110.893 382.989,116.833 382.989,116.833" fill="#E15D29"/>
    <path d="M382.989,116.833 C382.612,129.156 386.6,142.947 388.938,155.155 C389.819,159.756 390.942,163.352 395.215,165.728 C408.112,172.901 408.213,157.469 408.19,148.099 C408.168,140.281 408.065,133.249 406.194,125.674 C405.311,122.101 404.04,116.352 401.083,114.01 C397.147,110.893 382.989,116.833 382.989,116.833 z" fill-opacity="0" stroke="#5B5C5B" stroke-width="6.3"/>
    <path d="M385.672,126.4 C386.2,124.362 391.055,124.261 393.022,123.949 M386.372,135.15 C389.26,134.706 391.708,132.024 394.772,132.349" fill-opacity="0" stroke="#5B5C5B" stroke-width="6.3" stroke-linecap="round" stroke-linejoin="round"/>
    <path d="M369.02,141.099 C360.155,137.549 353.133,144.271 351.303,153.605 C350.098,159.747 352.596,164.249 354.715,169.601 C359.502,181.689 364.083,182.346 375.092,184.124 C393.09,187.031 409.262,173.29 404.702,152.453 C401.288,136.849 387.131,133.174 374.465,138.662 C373.032,139.283 371.629,139.616 370.321,140.633 L369.02,141.099" fill="#DD453C"/>
    <path d="M369.02,141.099 C360.155,137.549 353.133,144.271 351.303,153.605 C350.098,159.747 352.596,164.249 354.715,169.601 C359.502,181.689 364.083,182.346 375.092,184.124 C393.09,187.031 409.262,173.29 404.702,152.453 C401.288,136.849 387.131,133.174 374.465,138.662 C373.032,139.283 371.629,139.616 370.321,140.633 L369.02,141.099 z" fill-opacity="0" stroke="#5B5C5B" stroke-width="6.074" stroke-linecap="round" stroke-linejoin="round"/>
    <path d="M368.055,156.032 C368.055,157.837 366.489,159.3 364.555,159.3 C362.624,159.3 361.055,157.837 361.055,156.032 C361.055,154.229 362.624,152.766 364.555,152.766 C366.489,152.766 368.055,154.229 368.055,156.032" fill="#FFFFFE"/>
    <path d="M392.323,150.433 C392.592,156.514 397.303,165.228 393.313,170.883 C397.206,170.196 399.538,164.045 399.79,160.243 C400.204,153.987 397.545,152.941 393.723,149.5 L392.323,150.433" fill="#FFFFFE"/>
    <path d="M366.54,128.849 C367.491,132.718 368.6,136.782 368.989,140.75" fill-opacity="0" stroke="#5B5C5B" stroke-width="6.074" stroke-linecap="round" stroke-linejoin="round"/>
    <path d="M420.79,106.287 C420.631,107.196 419.149,109.394 419.143,110.484 C419.131,112.289 420.766,112.734 420.94,113.922 C421.659,118.89 421.069,122.934 418.188,128.048 C409.633,143.228 386.534,145.15 371.895,145.965 C370.59,151.451 368.45,151.413 373.477,156.22 C377.28,159.855 380.596,161.522 385.584,162.655 C395.844,164.986 405.012,165.72 415.715,162.069 C425.915,158.591 437.309,142.279 436.198,130.292 C435.6,123.844 434.014,120.344 430.161,116.35 C428.071,114.182 427.323,113.385 425.608,111.085 C424.239,109.25 425.245,107.686 422.442,106.886 L420.79,106.287" fill="#F9C623"/>
    <path d="M420.79,106.287 C420.631,107.196 419.149,109.394 419.143,110.484 C419.131,112.289 420.766,112.734 420.94,113.922 C421.659,118.89 421.069,122.934 418.188,128.048 C409.633,143.228 386.534,145.15 371.895,145.965 C370.59,151.451 368.45,151.413 373.477,156.22 C377.28,159.855 380.596,161.522 385.584,162.655 C395.844,164.986 405.012,165.72 415.715,162.069 C425.915,158.591 437.309,142.279 436.198,130.292 C435.6,123.844 434.014,120.344 430.161,116.35 C428.071,114.182 427.323,113.385 425.608,111.085 C424.239,109.25 425.245,107.686 422.442,106.886 L420.79,106.287 z" fill-opacity="0" stroke="#5B5C5B" stroke-width="6.3" stroke-linecap="round" stroke-linejoin="round"/>
    <path d="M422.19,111.395 C422.227,112.319 421.245,114.829 421.467,115.891 C421.834,117.652 423.518,117.677 423.936,118.791 C425.68,123.447 425.952,127.532 424.221,133.227 C419.079,150.139 396.995,157.766 382.913,162.208 C382.793,167.874 380.702,168.37 386.604,171.797 C391.069,174.388 394.647,175.184 399.741,175.044 C410.217,174.756 419.297,173.186 428.95,166.965 C438.149,161.036 445.821,142.317 442.223,130.925 C440.29,124.797 438.012,121.784 433.424,118.857 C430.932,117.267 430.038,116.677 427.885,114.865 C426.168,113.42 426.819,111.647 423.922,111.568 L422.19,111.395" fill="#F9C623"/>
    <path d="M422.19,111.395 C422.227,112.319 421.245,114.829 421.467,115.891 C421.834,117.652 423.518,117.677 423.936,118.791 C425.68,123.447 425.952,127.532 424.221,133.227 C419.079,150.139 396.995,157.766 382.913,162.208 C382.793,167.874 380.702,168.37 386.604,171.797 C391.069,174.388 394.647,175.184 399.741,175.044 C410.217,174.756 419.297,173.186 428.95,166.965 C438.149,161.036 445.821,142.317 442.223,130.925 C440.29,124.797 438.012,121.784 433.424,118.857 C430.932,117.267 430.038,116.677 427.885,114.865 C426.168,113.42 426.819,111.647 423.922,111.568 L422.19,111.395 z" fill-opacity="0" stroke="#5B5C5B" stroke-width="6.3" stroke-linecap="round" stroke-linejoin="round"/>
    <path d="M428.249,118.672 C428.426,119.576 427.838,122.229 428.221,123.236 C428.85,124.906 430.516,124.627 431.096,125.65 C433.524,129.927 434.415,133.906 433.573,139.835 C431.073,157.442 410.454,168.953 397.243,175.878 C397.985,181.487 395.999,182.354 402.342,184.667 C407.137,186.415 410.788,186.555 415.79,185.496 C426.077,183.32 434.793,180.131 443.366,172.251 C451.536,164.743 456.254,144.897 450.975,134.312 C448.137,128.618 445.434,126.059 440.463,124.001 C437.764,122.883 436.793,122.463 434.393,121.066 C432.481,119.95 432.854,118.084 429.985,118.529 L428.249,118.672" fill="#F9C623"/>
    <path d="M428.249,118.672 C428.426,119.576 427.838,122.229 428.221,123.236 C428.85,124.906 430.516,124.627 431.096,125.65 C433.524,129.927 434.415,133.906 433.573,139.835 C431.073,157.442 410.454,168.953 397.243,175.878 C397.985,181.487 395.999,182.354 402.342,184.667 C407.137,186.415 410.788,186.555 415.79,185.496 C426.077,183.32 434.793,180.131 443.366,172.251 C451.536,164.743 456.254,144.897 450.975,134.312 C448.137,128.618 445.434,126.059 440.463,124.001 C437.764,122.883 436.793,122.463 434.393,121.066 C432.481,119.95 432.854,118.084 429.985,118.529 L428.249,118.672 z" fill-opacity="0" stroke="#5B5C5B" stroke-width="6.3" stroke-linecap="round" stroke-linejoin="round"/>
    <path d="M435.723,145.533 C429.217,145.14 419.083,151.887 416.182,157.575 C413.149,163.525 413.918,170.641 416.497,176.459 C422.274,189.488 445.606,190.166 454.422,181.35 C466.817,168.957 452.436,147.637 438.055,146 L435.723,145.533" fill="#EB8B2D"/>
    <path d="M435.723,145.533 C429.217,145.14 419.083,151.887 416.182,157.575 C413.149,163.525 413.918,170.641 416.497,176.459 C422.274,189.488 445.606,190.166 454.422,181.35 C466.817,168.957 452.436,147.637 438.055,146 L435.723,145.533 z" fill-opacity="0" stroke="#5B5C5B" stroke-width="6.3" stroke-linecap="round" stroke-linejoin="round"/>
    <path d="M431.522,156.033 C431.053,139.488 443.7,134.949 457.143,132.25 C458.854,148.367 445.547,155.566 431.989,155.566 L431.522,156.033" fill="#84BF41"/>
    <path d="M431.522,156.033 C431.053,139.488 443.7,134.949 457.143,132.25 C458.854,148.367 445.547,155.566 431.989,155.566 L431.522,156.033 z" fill-opacity="0" stroke="#5B5C5B" stroke-width="6.3" stroke-linecap="round" stroke-linejoin="round"/>
    <path d="M452.977,175.03 C458.481,174.515 464.385,179.136 469.7,178.078 C474.12,177.199 473.53,172.942 470.723,169.8 C464.729,163.093 455.454,163.357 453.327,173.887 L452.977,175.03" fill="#BE7744"/>
    <path d="M453.678,174.231 C459.868,174.293 464.479,177.391 470.075,178.299 C471.124,182.869 465.012,185.378 462.077,185.08 C458.157,184.682 455.985,180.355 454.377,176.401 L453.678,174.231" fill="#DDBFA0"/>
    <path d="M463.477,164.551 C451.168,162.454 450.784,187.631 465.344,185.551 C471.499,184.672 473.881,180.466 473.745,174.351 C473.608,168.3 470.098,167.414 466.745,163.151 L463.477,164.551 z" fill-opacity="0" stroke="#5B5C5B" stroke-width="6.3" stroke-linecap="round" stroke-linejoin="round"/>
    <g>
      <path d="M428.372,162.974 C428.372,164.425 427.198,165.599 425.747,165.599 C424.297,165.599 423.122,164.425 423.122,162.974 C423.122,161.525 424.297,160.349 425.747,160.349 C427.198,160.349 428.372,161.525 428.372,162.974" fill="#FFFFFE"/>
      <path d="M74.366,17.969 C67.327,15.927 57.674,14.822 53.609,22.302 C50.729,27.603 50.626,37.003 53.258,42.319 C56.132,48.126 63.369,53.473 69.766,54.626 C75.117,55.59 85.416,52.571 88.474,58.212 C90.526,61.997 86.815,67.208 88.1,71.236 C89.165,74.579 95.72,77.736 98.642,78.591 C98.848,75.219 98.383,71.703 98.96,68.371 C99.459,65.493 100.149,65.582 101.634,63.171 C104.918,57.837 103.469,52.306 103.069,46.694 C106.644,45.693 109.015,45.514 111.618,42.885 C114.229,40.248 117.336,36.42 118.275,33.136 C119.822,27.724 118.656,17.636 115.125,13.561 C108.4,5.802 90.244,-0.357 82.449,8.318 C79.928,11.124 76.553,15.237 75.7,18.969 L74.366,17.969" fill="#FFFFFE"/>
    </g>
    <path d="M258.661,241.199 C258.661,245.385 257.626,248.776 256.351,248.776 L236.308,248.776 C235.034,248.776 234.001,245.385 234.001,241.199 L234.001,175.371 C234.001,171.186 235.034,167.794 236.308,167.794 L256.351,167.794 C257.626,167.794 258.661,171.186 258.661,175.371 L258.661,241.199" fill="#CCEAF2"/>
    <path d="M258.661,241.199 C258.661,245.385 257.626,248.776 256.351,248.776 L236.308,248.776 C235.034,248.776 234.001,245.385 234.001,241.199 L234.001,175.371 C234.001,171.186 235.034,167.794 236.308,167.794 L256.351,167.794 C257.626,167.794 258.661,171.186 258.661,175.371 L258.661,241.199 z" fill-opacity="0" stroke="#5B5C5B" stroke-width="4.625"/>
    <path d="M242.226,200.066 L251.256,214.998 L258.661,214.998 L258.661,202.101 L242.226,200.066" fill="#A3C3DD"/>
    <path d="M258.798,248.141 C258.798,252.324 257.766,255.715 256.491,255.715 L236.447,255.715 C235.173,255.715 234.141,252.324 234.141,248.141 L234.141,182.312 C234.141,178.126 235.173,174.735 236.447,174.735 L256.491,174.735 C257.766,174.735 258.798,178.126 258.798,182.312 L258.798,248.141" fill="#CCEAF2"/>
    <path d="M258.798,248.141 C258.798,252.324 257.766,255.715 256.491,255.715 L236.447,255.715 C235.173,255.715 234.141,252.324 234.141,248.141 L234.141,182.312 C234.141,178.126 235.173,174.735 236.447,174.735 L256.491,174.735 C257.766,174.735 258.798,178.126 258.798,182.312 L258.798,248.141 z" fill-opacity="0" stroke="#5B5C5B" stroke-width="4.625"/>
    <path d="M143.761,211.928 C148.182,205.098 144.94,195.143 136.521,189.694 C128.102,184.244 117.693,185.364 113.271,192.195 C108.851,199.025 112.092,208.981 120.512,214.43 C128.931,219.877 139.34,218.758 143.761,211.928" fill="#CCEAF2"/>
    <path d="M143.761,211.928 C148.182,205.098 144.94,195.143 136.521,189.694 C128.102,184.244 117.693,185.364 113.271,192.195 C108.851,199.025 112.092,208.981 120.512,214.43 C128.931,219.877 139.34,218.758 143.761,211.928 z" fill-opacity="0" stroke="#5B5C5B" stroke-width="8.381"/>
    <path d="M289.281,290.367 C289.281,294.551 285.889,297.944 281.704,297.944 L215.876,297.944 C211.691,297.944 208.299,294.551 208.299,290.367 L208.299,224.539 C208.299,220.356 211.691,216.963 215.876,216.963 L281.704,216.963 C285.889,216.963 289.281,220.356 289.281,224.539 L289.281,290.367" fill="#CCEAF2"/>
    <path d="M289.281,290.367 C289.281,294.551 285.889,297.944 281.704,297.944 L215.876,297.944 C211.691,297.944 208.299,294.551 208.299,290.367 L208.299,224.539 C208.299,220.356 211.691,216.963 215.876,216.963 L281.704,216.963 C285.889,216.963 289.281,220.356 289.281,224.539 L289.281,290.367 z" fill-opacity="0" stroke="#5B5C5B" stroke-width="8.381"/>
    <path d="M206.26,232.301 C205.086,236.319 200.879,238.621 196.862,237.449 L161.768,227.192 C157.752,226.018 155.447,221.809 156.622,217.793 L157.656,214.252 C158.831,210.235 163.038,207.932 167.054,209.106 L202.149,219.362 C206.165,220.537 208.469,224.744 207.295,228.76 L206.26,232.301" fill="#CCEAF2"/>
    <path d="M206.26,232.301 C205.086,236.319 200.879,238.621 196.862,237.449 L161.768,227.192 C157.752,226.018 155.447,221.809 156.622,217.793 L157.656,214.252 C158.831,210.235 163.038,207.932 167.054,209.106 L202.149,219.362 C206.165,220.537 208.469,224.744 207.295,228.76 L206.26,232.301 z" fill-opacity="0" stroke="#5B5C5B" stroke-width="8.381"/>
    <path d="M260.416,271.123 C260.416,275.307 257.025,278.699 252.84,278.699 L241.534,278.699 C237.35,278.699 233.957,275.307 233.957,271.123 L233.957,267.834 C233.957,263.651 237.35,260.26 241.534,260.26 L252.84,260.26 C257.025,260.26 260.416,263.651 260.416,267.834 L260.416,271.123" fill="#9BC63D"/>
    <path d="M260.416,271.123 C260.416,275.307 257.025,278.699 252.84,278.699 L241.534,278.699 C237.35,278.699 233.957,275.307 233.957,271.123 L233.957,267.834 C233.957,263.651 237.35,260.26 241.534,260.26 L252.84,260.26 C257.025,260.26 260.416,263.651 260.416,267.834 L260.416,271.123 z" fill-opacity="0" stroke="#5B5C5B" stroke-width="6.705"/>
    <path d="M242.376,333.664 C242.376,337.848 238.983,341.24 234.799,341.24 L225.898,341.24 C221.714,341.24 218.322,337.848 218.322,333.664 L218.322,312.336 C218.322,308.151 221.714,304.76 225.898,304.76 L234.799,304.76 C238.983,304.76 242.376,308.151 242.376,312.336 L242.376,333.664" fill="#CCEAF2"/>
    <path d="M242.376,333.664 C242.376,337.848 238.983,341.24 234.799,341.24 L225.898,341.24 C221.714,341.24 218.322,337.848 218.322,333.664 L218.322,312.336 C218.322,308.151 221.714,304.76 225.898,304.76 L234.799,304.76 C238.983,304.76 242.376,308.151 242.376,312.336 L242.376,333.664 z" fill-opacity="0" stroke="#5B5C5B" stroke-width="8.381"/>
    <path d="M284.069,333.664 C284.069,337.848 280.677,341.24 276.493,341.24 L267.592,341.24 C263.407,341.24 260.015,337.848 260.015,333.664 L260.015,312.336 C260.015,308.151 263.407,304.76 267.592,304.76 L276.493,304.76 C280.677,304.76 284.069,308.151 284.069,312.336 L284.069,333.664" fill="#CCEAF2"/>
    <path d="M284.069,333.664 C284.069,337.848 280.677,341.24 276.493,341.24 L267.592,341.24 C263.407,341.24 260.015,337.848 260.015,333.664 L260.015,312.336 C260.015,308.151 263.407,304.76 267.592,304.76 L276.493,304.76 C280.677,304.76 284.069,308.151 284.069,312.336 L284.069,333.664 z" fill-opacity="0" stroke="#5B5C5B" stroke-width="8.381"/>
    <path d="M246.384,362.93 C246.384,367.113 242.993,370.506 238.809,370.506 L207.457,370.506 C203.273,370.506 199.881,367.113 199.881,362.93 L199.881,353.627 C199.881,349.444 203.273,346.051 207.457,346.051 L238.809,346.051 C242.993,346.051 246.384,349.444 246.384,353.627 L246.384,362.93" fill="#CCEAF2"/>
    <path d="M246.384,362.93 C246.384,367.113 242.993,370.506 238.809,370.506 L207.457,370.506 C203.273,370.506 199.881,367.113 199.881,362.93 L199.881,353.627 C199.881,349.444 203.273,346.051 207.457,346.051 L238.809,346.051 C242.993,346.051 246.384,349.444 246.384,353.627 L246.384,362.93 z" fill-opacity="0" stroke="#5B5C5B" stroke-width="8.381"/>
    <path d="M305.317,362.93 C305.317,367.113 301.924,370.506 297.741,370.506 L266.389,370.506 C262.206,370.506 258.813,367.113 258.813,362.93 L258.813,353.627 C258.813,349.444 262.206,346.051 266.389,346.051 L297.741,346.051 C301.924,346.051 305.317,349.444 305.317,353.627 L305.317,362.93" fill="#CCEAF2"/>
    <path d="M305.317,362.93 C305.317,367.113 301.924,370.506 297.741,370.506 L266.389,370.506 C262.206,370.506 258.813,367.113 258.813,362.93 L258.813,353.627 C258.813,349.444 262.206,346.051 266.389,346.051 L297.741,346.051 C301.924,346.051 305.317,349.444 305.317,353.627 L305.317,362.93 z" fill-opacity="0" stroke="#5B5C5B" stroke-width="8.381"/>
    <path d="M90.366,189.593 L122.534,210.414 C127.646,213.721 134.471,212.26 137.779,207.149 C141.087,202.037 139.625,195.212 134.514,191.904 C119.676,182.3 130.5,170.203 143.396,178.549 C156.406,186.971 160.322,204.045 152.143,216.682 C143.961,229.324 126.782,232.742 113.771,224.321 L81.435,203.392 C74.14,198.672 82.416,184.448 90.366,189.593" fill="#CCEAF2"/>
    <path d="M90.366,189.593 L122.534,210.414 C127.646,213.721 134.471,212.26 137.779,207.149 C141.087,202.037 139.625,195.212 134.514,191.904 C119.676,182.3 130.5,170.203 143.396,178.549 C156.406,186.971 160.322,204.045 152.143,216.682 C143.961,229.324 126.782,232.742 113.771,224.321 L81.435,203.392 C74.14,198.672 82.416,184.448 90.366,189.593 z" fill-opacity="0" stroke="#5B5C5B" stroke-width="8.381"/>
    <path d="M290.224,232.744 C289.608,236.883 292.461,240.738 296.6,241.356 L332.762,246.746 C336.899,247.363 340.756,244.508 341.372,240.369 L341.917,236.721 C342.534,232.582 339.68,228.727 335.542,228.11 L299.377,222.719 C295.239,222.102 291.385,224.957 290.767,229.094 L290.224,232.744" fill="#CCEAF2"/>
    <path d="M290.224,232.744 C289.608,236.883 292.461,240.738 296.6,241.356 L332.762,246.746 C336.899,247.363 340.756,244.508 341.372,240.369 L341.917,236.721 C342.534,232.582 339.68,228.727 335.542,228.11 L299.377,222.719 C295.239,222.102 291.385,224.957 290.767,229.094 L290.224,232.744 z" fill-opacity="0" stroke="#5B5C5B" stroke-width="8.381"/>
    <path d="M325.393,202.732 C324.879,206.885 321.096,209.834 316.944,209.321 L181.319,192.522 C177.167,192.008 174.217,188.223 174.731,184.071 L187.456,81.337 C187.97,77.185 191.754,74.236 195.906,74.75 L331.532,91.548 C335.682,92.063 338.633,95.846 338.12,99.999 L325.393,202.732" fill="#CCEAF2"/>
    <path d="M325.393,202.732 C324.879,206.885 321.096,209.834 316.944,209.321 L181.319,192.522 C177.167,192.008 174.217,188.223 174.731,184.071 L187.456,81.337 C187.97,77.185 191.754,74.236 195.906,74.75 L331.532,91.548 C335.682,92.063 338.633,95.846 338.12,99.999 L325.393,202.732 z M223.508,158.409 L249.917,175.685 L280.141,166.501 M262.475,82.995 L266.616,49.556" fill-opacity="0" stroke="#5B5C5B" stroke-width="8.381"/>
    <path d="M281.723,40.654 C280.815,47.979 274.142,53.181 266.818,52.275 C259.493,51.367 254.291,44.694 255.197,37.369 C256.105,30.044 262.78,24.842 270.104,25.749 C277.427,26.657 282.629,33.33 281.723,40.654" fill="#E6788B"/>
    <path d="M281.723,40.654 C280.815,47.979 274.142,53.181 266.818,52.275 C259.493,51.367 254.291,44.694 255.197,37.369 C256.105,30.044 262.78,24.842 270.104,25.749 C277.427,26.657 282.629,33.33 281.723,40.654 z" fill-opacity="0" stroke="#5B5C5B" stroke-width="8.381"/>
    <path d="M241.046,122.646 C240.211,129.383 234.073,134.168 227.336,133.334 C220.598,132.499 215.813,126.361 216.648,119.624 C217.482,112.886 223.621,108.101 230.358,108.936 C237.095,109.77 241.88,115.908 241.046,122.646" fill="#E88040"/>
    <path d="M241.046,122.646 C240.211,129.383 234.073,134.168 227.336,133.334 C220.598,132.499 215.813,126.361 216.648,119.624 C217.482,112.886 223.621,108.101 230.358,108.936 C237.095,109.77 241.88,115.908 241.046,122.646 z" fill-opacity="0" stroke="#5B5C5B" stroke-width="8.381"/>
    <path d="M299.822,129.926 C298.988,136.663 292.849,141.448 286.112,140.613 C279.375,139.779 274.589,133.641 275.424,126.904 C276.258,120.166 282.396,115.381 289.133,116.216 C295.871,117.05 300.657,123.188 299.822,129.926" fill="#E88040"/>
    <path d="M299.822,129.926 C298.988,136.663 292.849,141.448 286.112,140.613 C279.375,139.779 274.589,133.641 275.424,126.904 C276.258,120.166 282.396,115.381 289.133,116.216 C295.871,117.05 300.657,123.188 299.822,129.926 z" fill-opacity="0" stroke="#5B5C5B" stroke-width="8.381"/>
    <path d="M307.827,93.054 L337.5,95.961 L322.247,207.979 L255.028,196.978 C310.34,168.483 314.532,134.959 307.827,93.054" fill="#A3C3DD"/>
    <path d="M325.393,202.732 C324.879,206.885 321.096,209.834 316.944,209.321 L181.319,192.522 C177.167,192.008 174.217,188.223 174.731,184.071 L187.456,81.337 C187.97,77.185 191.754,74.236 195.906,74.75 L331.532,91.548 C335.682,92.063 338.633,95.846 338.12,99.999 L325.393,202.732 z" fill-opacity="0" stroke="#5B5C5B" stroke-width="8.381"/>
    <path d="M236.666,234.768 C238.856,238.844 237.327,243.926 233.25,246.117 C229.172,248.307 224.091,246.78 221.9,242.699 C219.709,238.623 221.239,233.543 225.316,231.352 C229.394,229.16 234.475,230.69 236.666,234.768" fill="#FFF482"/>
    <path d="M236.666,234.768 C238.856,238.844 237.327,243.926 233.25,246.117 C229.172,248.307 224.091,246.78 221.9,242.699 C219.709,238.623 221.239,233.543 225.316,231.352 C229.394,229.16 234.475,230.69 236.666,234.768 z" fill-opacity="0" stroke="#5B5C5B" stroke-width="6.705"/>
    <path d="M276.258,219.328 C276.258,224.953 275.385,229.967 274.588,235.492 C273.741,241.365 272.21,247.205 271.231,253.069 C270.602,256.83 270.168,260.498 268.987,264.096 C267.101,269.836 265.273,275.914 260.887,280.02 C255.674,284.901 250.882,290.385 245.825,295.252 C253.437,297.582 263.333,296.655 271.267,296.711 C274.979,296.737 284.14,298.344 286.875,295.057 C289.446,291.969 288.51,285.563 288.551,281.842 C288.639,273.85 289.241,265.85 289.682,257.867 C290.047,251.248 289.823,244.688 290.725,238.102 C291.372,233.387 292.215,228.49 289.743,224.301 C287.865,221.115 286.026,219.604 282.746,218.442 C281.056,217.844 276.102,216.276 276.258,219.608" fill="#A3C3DD"/>
    <path d="M289.281,290.367 C289.281,294.551 285.889,297.944 281.704,297.944 L215.876,297.944 C211.691,297.944 208.299,294.551 208.299,290.367 L208.299,224.539 C208.299,220.356 211.691,216.961 215.876,216.961 L281.704,216.961 C285.889,216.961 289.281,220.356 289.281,224.539 L289.281,290.367 z" fill-opacity="0" stroke="#5B5C5B" stroke-width="8.381"/>
    <path d="M275.635,234.768 C277.827,238.844 276.297,243.926 272.218,246.117 C268.141,248.307 263.059,246.78 260.87,242.699 C258.679,238.623 260.208,233.543 264.286,231.352 C268.363,229.16 273.445,230.69 275.635,234.768" fill="#FFF482"/>
    <path d="M275.635,234.768 C277.827,238.844 276.297,243.926 272.218,246.117 C268.141,248.307 263.059,246.78 260.87,242.699 C258.679,238.623 260.208,233.543 264.286,231.352 C268.363,229.16 273.445,230.69 275.635,234.768 z" fill-opacity="0" stroke="#5B5C5B" stroke-width="6.705"/>
    <path d="M232.818,307.608 L240.983,307.608 L240.983,338.033 L232.818,338.033 z" fill="#A3C3DD"/>
    <path d="M273.047,307.608 L281.008,307.608 L281.008,339.738 L273.047,339.738 z" fill="#A3C3DD"/>
    <path d="M262.151,362.082 L302.444,362.082 L302.444,368.863 L262.151,368.863 z" fill="#A3C3DD"/>
    <path d="M199.881,361.244 L241.618,361.244 L241.618,368.863 L199.881,368.863 z" fill="#A3C3DD"/>
    <path d="M159.065,217.793 L203.484,230.084 L199.302,237.742 L157.39,227.192 L159.065,217.793" fill="#A3C3DD"/>
    <path d="M290.224,232.744 L341.372,240.369 L332.762,246.746 L292.977,241.397 L290.224,232.744" fill="#A3C3DD"/>
    <path d="M206.26,232.301 C205.086,236.319 200.879,238.621 196.862,237.449 L161.768,227.192 C157.752,226.018 155.447,221.809 156.622,217.793 L157.656,214.252 C158.831,210.235 163.038,207.932 167.054,209.106 L202.149,219.362 C206.165,220.537 208.469,224.744 207.295,228.76 L206.26,232.301 z M242.376,333.664 C242.376,337.848 238.984,341.24 234.799,341.24 L225.898,341.24 C221.714,341.24 218.322,337.848 218.322,333.664 L218.322,312.336 C218.322,308.151 221.714,304.76 225.898,304.76 L234.799,304.76 C238.984,304.76 242.376,308.151 242.376,312.336 L242.376,333.664 z M284.069,333.664 C284.069,337.848 280.677,341.24 276.493,341.24 L267.592,341.24 C263.407,341.24 260.015,337.848 260.015,333.664 L260.015,312.336 C260.015,308.151 263.407,304.76 267.592,304.76 L276.493,304.76 C280.677,304.76 284.069,308.151 284.069,312.336 L284.069,333.664 z M246.384,362.93 C246.384,367.113 242.993,370.506 238.809,370.506 L207.457,370.506 C203.273,370.506 199.881,367.113 199.881,362.93 L199.881,353.627 C199.881,349.444 203.273,346.051 207.457,346.051 L238.809,346.051 C242.993,346.051 246.384,349.444 246.384,353.627 L246.384,362.93 z M305.317,362.93 C305.317,367.113 301.924,370.506 297.741,370.506 L266.389,370.506 C262.206,370.506 258.813,367.113 258.813,362.93 L258.813,353.627 C258.813,349.444 262.206,346.051 266.389,346.051 L297.741,346.051 C301.924,346.051 305.317,349.444 305.317,353.627 L305.317,362.93 z M290.224,232.744 C289.608,236.883 292.461,240.738 296.6,241.356 L332.762,246.746 C336.899,247.363 340.756,244.508 341.372,240.369 L341.917,236.721 C342.534,232.582 339.68,228.727 335.542,228.11 L299.377,222.719 C295.239,222.102 291.385,224.957 290.767,229.094 L290.224,232.744 z" fill-opacity="0" stroke="#5B5C5B" stroke-width="8.381"/>
    <path d="M234.294,124.689 C234.294,126.49 232.834,127.949 231.034,127.949 C229.233,127.949 227.772,126.49 227.772,124.689 C227.772,122.888 229.233,121.428 231.034,121.428 C232.834,121.428 234.294,122.888 234.294,124.689" fill="#FFFFFE"/>
    <path d="M294.34,131.872 C294.34,133.674 292.882,135.133 291.081,135.133 C289.278,135.133 287.818,133.674 287.818,131.872 C287.818,130.072 289.278,128.612 291.081,128.612 C292.882,128.612 294.34,130.072 294.34,131.872" fill="#FFFFFE"/>
    <path d="M168.899,170.973 C168.899,176.772 164.198,181.473 158.399,181.473 L34.499,181.473 C28.7,181.473 23.999,176.772 23.999,170.973 C23.999,165.174 28.7,160.473 34.499,160.473 L158.399,160.473 C164.198,160.473 168.899,165.174 168.899,170.973" fill="#FFFFFE"/>
    <path d="M168.899,170.973 C168.899,176.772 164.198,181.473 158.399,181.473 L34.499,181.473 C28.7,181.473 23.999,176.772 23.999,170.973 C23.999,165.174 28.7,160.473 34.499,160.473 L158.399,160.473 C164.198,160.473 168.899,165.174 168.899,170.973 z" fill-opacity="0" stroke="#5B5C5B" stroke-width="8.381"/>
    <path d="M346.883,246.598 C341.848,240.207 344.155,229.994 352.034,223.791 C359.911,217.584 370.381,217.735 375.415,224.127 C380.45,230.518 378.141,240.731 370.264,246.938 C362.385,253.141 351.917,252.99 346.883,246.598" fill="#CCEAF2"/>
    <path d="M346.883,246.598 C341.848,240.207 344.155,229.994 352.034,223.791 C359.911,217.584 370.381,217.735 375.415,224.127 C380.45,230.518 378.141,240.731 370.264,246.938 C362.385,253.141 351.917,252.99 346.883,246.598 z" fill-opacity="0" stroke="#5B5C5B" stroke-width="8.381"/>
    <path d="M404.491,208.992 L372.985,239.569 C368.2,243.334 361.27,242.512 357.5,237.729 C353.735,232.946 354.559,226.014 359.34,222.246 C373.227,211.311 361.329,200.269 349.262,209.772 C337.086,219.362 334.768,236.725 344.083,248.551 C353.399,260.379 370.821,262.194 382.997,252.604 L414.661,221.905 C421.487,216.531 411.93,203.134 404.491,208.992" fill="#CCEAF2"/>
    <path d="M404.491,208.992 L372.985,239.569 C368.2,243.334 361.27,242.512 357.5,237.729 C353.735,232.946 354.559,226.014 359.34,222.246 C373.227,211.311 361.329,200.269 349.262,209.772 C337.086,219.362 334.768,236.725 344.083,248.551 C353.399,260.379 370.821,262.194 382.997,252.604 L414.661,221.905 C421.487,216.531 411.93,203.134 404.491,208.992 z" fill-opacity="0" stroke="#5B5C5B" stroke-width="8.381"/>
    <path d="M481.098,198.4 C481.098,204.199 476.399,208.901 470.598,208.901 L346.698,208.901 C340.901,208.901 336.198,204.199 336.198,198.4 C336.198,192.602 340.901,187.901 346.698,187.901 L470.598,187.901 C476.399,187.901 481.098,192.602 481.098,198.4" fill="#FFFFFE"/>
    <path d="M481.098,198.4 C481.098,204.199 476.399,208.901 470.598,208.901 L346.698,208.901 C340.901,208.901 336.198,204.199 336.198,198.4 C336.198,192.602 340.901,187.901 346.698,187.901 L470.598,187.901 C476.399,187.901 481.098,192.602 481.098,198.4 z" fill-opacity="0" stroke="#5B5C5B" stroke-width="8.381"/>
    <g>
      <path d="M298.157,53.849 C306.649,54.032 316.168,49.679 316.698,40.073 C317.184,31.199 308.911,26.975 301.368,27.052 C302.935,10.997 279.016,-0.36 271.067,15.903 C264.704,3.949 244.005,13.646 240.74,23.299 C237.677,32.357 240.731,44.75 251.032,46.719 C251.955,57.898 251.154,69.844 250.861,81.143 C258.69,83.071 266.024,84.007 274.133,84.439 C277.463,84.617 280.784,85.598 283.495,85.598 L298.157,53.849" fill="#FFFFFE"/>
      <path d="M298.157,53.849 C306.649,54.032 316.168,49.679 316.698,40.073 C317.184,31.199 308.911,26.975 301.368,27.052 C302.935,10.997 279.016,-0.36 271.067,15.903 C264.704,3.949 244.005,13.646 240.74,23.299 C237.677,32.357 240.731,44.75 251.032,46.719 C251.955,57.898 251.154,69.844 250.861,81.143 C258.69,83.071 266.024,84.007 274.133,84.439 C277.463,84.617 280.784,85.598 283.495,85.598 L298.157,53.849 z" fill-opacity="0" stroke="#5B5C5B" stroke-width="8.381" stroke-linecap="round" stroke-linejoin="round"/>
    </g>
    <path d="M291.749,24.323 C293.78,32.498 288.381,41.891 279.512,42.576 C285.408,54.901 278.76,65.678 275.694,77.12 C280.427,78.579 285.131,66.671 286.382,63.115 C287.497,59.946 289.591,53.318 291.749,50.82 C293.686,48.578 295.719,48.422 298.399,47.771 C301.469,47.026 307.387,47.085 308.374,43.924 C309.479,40.381 310.124,36.098 303.649,34.648 C298.184,33.424 294.824,31.062 292.799,26.073 L291.749,24.323" fill="#D2D3D2"/>
    <path d="M56.789,99.099 C66.834,91.912 82.03,90.616 94.123,92.555 C100.869,93.637 107.261,96.279 114.704,95.028 C121.254,93.925 124.611,92.62 130.714,96.814 C139.771,103.037 144.066,117.296 144.056,128.031 C144.053,131.567 145.011,136.803 142.667,139.711 C137.929,145.588 121.247,145.609 114.646,145.764 C104.396,146.006 94.181,146.207 83.907,146.233 C74.889,146.256 71.121,143.534 64.231,137.39 C53.633,127.937 52.627,118.777 55.389,105.633 L56.789,99.099" fill="#BE8353"/>
    <path d="M56.789,99.099 C66.834,91.912 82.03,90.616 94.123,92.555 C100.869,93.637 107.261,96.279 114.704,95.028 C121.254,93.925 124.611,92.62 130.714,96.814 C139.771,103.037 144.066,117.296 144.056,128.031 C144.053,131.567 145.011,136.803 142.667,139.711 C137.929,145.588 121.247,145.609 114.646,145.764 C104.396,146.006 94.181,146.207 83.907,146.233 C74.889,146.256 71.121,143.534 64.231,137.39 C53.633,127.937 52.627,118.777 55.389,105.633 L56.789,99.099 z" fill-opacity="0" stroke="#5B5C5B" stroke-width="6.3" stroke-linecap="round" stroke-linejoin="round"/>
    <path d="M46.056,107.5 C56.687,93.237 77.756,96.193 85.367,112.759 C87.712,117.863 88.278,123.034 89.093,128.465 C89.661,132.247 91.582,136.341 91.285,140.085 C80.736,142.698 71.255,140.907 60.778,139.612 C57.304,139.182 47.411,142.409 45.461,139.612 C43.107,136.235 46.056,107.5 46.056,107.5" fill="#C57D73"/>
    <path d="M46.056,107.5 C56.687,93.237 77.756,96.193 85.367,112.759 C87.712,117.863 88.278,123.034 89.093,128.465 C89.661,132.247 91.582,136.341 91.285,140.085 C80.736,142.698 71.255,140.907 60.778,139.612 C57.304,139.182 47.411,142.409 45.461,139.612 C43.107,136.235 46.056,107.5 46.056,107.5 z M85.2,54.058 C97.311,63.508 82.681,66.238 89.75,74.708 M96.611,34.458 C103.117,38.196 106.443,50.18 104.24,57.046 C101.746,64.817 98.185,73.934 101.511,82.058 M68.611,16.234 C56.572,9.841 45.579,30.952 52.111,42.849 C56.398,50.657 66.254,56.018 74.56,55.434 M83.128,9.414 C88.538,-0.752 106.434,4.633 112.205,10.014 C117.905,15.331 120.402,23.598 119.559,31.367 C119.105,35.544 115.712,42.405 111.478,44.065" fill-opacity="0" stroke="#5B5C5B" stroke-width="6.3" stroke-linecap="round" stroke-linejoin="round"/>
    <path d="M94.356,105.633 C101.519,108.837 107.243,121.203 107.463,128.948 C109.561,128.305 109.53,123.041 110.042,121.039 C111.2,116.501 112.737,110.872 109.588,106.798 C115.071,112.84 115.238,120.457 115.625,128.002 C119.09,127.998 119.006,120.978 119.523,118.78 C121.239,120.91 123.135,125.268 123.325,128.008 C128.905,127.932 127.242,116.509 125.838,113.603 C127.588,116.748 130.157,120.002 132.347,122.858 C133.418,117.574 129.895,112.542 128.448,107.846 C132.155,114.338 136.118,118.536 136.641,126.207 C136.839,129.116 137.649,133.852 136.828,136.741 C136.116,139.246 134.23,138.625 131.637,138.544 C125.64,138.358 119.743,137.599 113.728,137.599 C109.485,137.599 105.198,137.753 100.961,137.573 C100.622,136.075 101.692,134.28 101.834,132.699 C101.993,130.934 101.799,129.06 101.641,127.322 C101.338,123.989 100.136,120.697 99.023,117.534 C97.263,112.529 97.936,108.461 92.956,105.866 L94.356,105.633" fill="#AE745B"/>
    <path d="M174.214,139.612 C174.214,148.842 136.018,156.324 88.902,156.324 C41.785,156.324 3.589,148.842 3.589,139.612 L174.214,139.612" fill="#FFFFFE"/>
    <path d="M174.214,139.612 C174.214,148.842 136.018,156.324 88.902,156.324 C41.785,156.324 3.589,148.842 3.589,139.612 L174.214,139.612 z" fill-opacity="0" stroke="#5B5C5B" stroke-width="7.178" stroke-linecap="round" stroke-linejoin="round"/>
    <path d="M58.072,108.199 C53.351,108.391 48.624,121.524 52.393,123.563 C53.657,120.748 53.61,117.245 55.411,114.84 C57.273,112.352 60.647,110.501 63.322,109.239 C66.251,107.86 70.541,106.13 64.977,104.069 C61.748,102.873 59.088,104.116 57.373,106.8 L58.072,108.199" fill="#FFFFFE"/>
    <path d="M92.023,100.849 C95.088,100.937 102.629,107.647 103.287,101.593 C109.514,100.588 115.997,106.488 122.5,104.786 C125.338,104.043 126.97,102.471 123.522,101.193 C121.12,100.302 117.306,101.398 114.745,100.869 C112.308,100.365 109.953,98.754 107.422,98.363 C104.974,97.986 102.229,98.533 99.748,98.4 C96.872,98.245 93.117,96.592 90.272,97.349 C87.482,98.092 87.754,100.906 90.973,100.5 L92.023,100.849" fill="#FFFFFE"/>
    <path d="M206.033,273.303 L291.03,271.188" fill-opacity="0" stroke="#5B5C5B" stroke-width="8.381" stroke-linecap="round" stroke-linejoin="round"/>
    <path d="M208.299,273.086 C208.299,273.086 196.96,317.065 206.866,322.469 C228.874,334.477 293.723,326.147 297.366,319.252 C303.293,308.035 288.912,271.268 288.912,271.268 L208.299,273.086" fill="#FFFFFE"/>
    <path d="M208.299,273.086 C208.299,273.086 196.96,317.065 206.866,322.469 C228.874,334.477 293.723,326.147 297.366,319.252 C303.293,308.035 288.912,271.268 288.912,271.268 L208.299,273.086 z" fill-opacity="0" stroke="#5B5C5B" stroke-width="8.381" stroke-linecap="round" stroke-linejoin="round"/>
    <path d="M271.366,281.469 C270.056,290.75 260.026,303.553 253.218,309.93 C250.645,312.34 246.141,312.875 244.404,315.244 C262.121,318.065 282.089,300.319 273.366,282.969 L271.366,281.469" fill="#B4B5B4"/>
    <path d="M149.954,394.286 C149.954,395.667 148.834,396.786 147.454,396.786 C146.073,396.786 144.954,395.667 144.954,394.286 C144.954,392.905 146.073,391.786 147.454,391.786 C148.834,391.786 149.954,392.905 149.954,394.286" fill="#FFFFFE"/>
    <path d="M187.454,412.786 C187.454,414.167 186.334,415.286 184.954,415.286 C183.573,415.286 182.454,414.167 182.454,412.786 C182.454,411.405 183.573,410.286 184.954,410.286 C186.334,410.286 187.454,411.405 187.454,412.786" fill="#FFFFFE"/>
    <path d="M217.454,405.286 C217.454,406.667 216.334,407.786 214.954,407.786 C213.573,407.786 212.454,406.667 212.454,405.286 C212.454,403.905 213.573,402.786 214.954,402.786 C216.334,402.786 217.454,403.905 217.454,405.286" fill="#FFFFFE"/>
    <path d="M183.954,392.286 C183.954,393.667 182.834,394.786 181.454,394.786 C180.073,394.786 178.954,393.667 178.954,392.286 C178.954,390.905 180.073,389.786 181.454,389.786 C182.834,389.786 183.954,390.905 183.954,392.286" fill="#FFFFFE"/>
    <path d="M144.954,413.286 C144.954,414.667 143.834,415.786 142.454,415.786 C141.073,415.786 139.954,414.667 139.954,413.286 C139.954,411.905 141.073,410.786 142.454,410.786 C143.834,410.786 144.954,411.905 144.954,413.286" fill="#FFFFFE"/>
    <path d="M227.954,435.786 C227.954,437.167 226.834,438.286 225.454,438.286 C224.073,438.286 222.954,437.167 222.954,435.786 C222.954,434.405 224.073,433.286 225.454,433.286 C226.834,433.286 227.954,434.405 227.954,435.786" fill="#FFFFFE"/>
    <path d="M268.954,417.786 C268.954,419.167 267.834,420.286 266.454,420.286 C265.073,420.286 263.954,419.167 263.954,417.786 C263.954,416.405 265.073,415.286 266.454,415.286 C267.834,415.286 268.954,416.405 268.954,417.786" fill="#FFFFFE"/>
    <path d="M295.454,403.786 C295.454,405.167 294.334,406.286 292.954,406.286 C291.573,406.286 290.454,405.167 290.454,403.786 C290.454,402.405 291.573,401.286 292.954,401.286 C294.334,401.286 295.454,402.405 295.454,403.786" fill="#FFFFFE"/>
    <path d="M299.454,436.786 C299.454,438.167 298.334,439.286 296.954,439.286 C295.573,439.286 294.454,438.167 294.454,436.786 C294.454,435.405 295.573,434.286 296.954,434.286 C298.334,434.286 299.454,435.405 299.454,436.786" fill="#FFFFFE"/>
    <path d="M260.454,432.786 C260.454,434.167 259.334,435.286 257.954,435.286 C256.573,435.286 255.454,434.167 255.454,432.786 C255.454,431.405 256.573,430.286 257.954,430.286 C259.334,430.286 260.454,431.405 260.454,432.786" fill="#FFFFFE"/>
    <path d="M247.454,401.286 C247.454,402.667 246.334,403.786 244.954,403.786 C243.573,403.786 242.454,402.667 242.454,401.286 C242.454,399.905 243.573,398.786 244.954,398.786 C246.334,398.786 247.454,399.905 247.454,401.286" fill="#FFFFFE"/>
    <path d="M323.954,409.786 C323.954,411.167 322.834,412.286 321.454,412.286 C320.073,412.286 318.954,411.167 318.954,409.786 C318.954,408.405 320.073,407.286 321.454,407.286 C322.834,407.286 323.954,408.405 323.954,409.786" fill="#FFFFFE"/>
    <path d="M164.454,374.286 C164.454,375.667 163.334,376.786 161.954,376.786 C160.573,376.786 159.454,375.667 159.454,374.286 C159.454,372.905 160.573,371.786 161.954,371.786 C163.334,371.786 164.454,372.905 164.454,374.286" fill="#FFFFFE"/>
    <path d="M116.954,390.786 C116.954,392.167 115.834,393.286 114.454,393.286 C113.073,393.286 111.954,392.167 111.954,390.786 C111.954,389.405 113.073,388.286 114.454,388.286 C115.834,388.286 116.954,389.405 116.954,390.786" fill="#FFFFFE"/>
    <path d="M330.954,444.286 C330.954,445.667 329.834,446.786 328.454,446.786 C327.073,446.786 325.954,445.667 325.954,444.286 C325.954,442.905 327.073,441.786 328.454,441.786 C329.834,441.786 330.954,442.905 330.954,444.286" fill="#FFFFFE"/>
    <path d="M201.954,430.786 C201.954,433.272 199.939,435.286 197.454,435.286 C194.968,435.286 192.954,433.272 192.954,430.786 C192.954,428.301 194.968,426.286 197.454,426.286 C199.939,426.286 201.954,428.301 201.954,430.786" fill="#EA9FBC"/>
    <path d="M166.454,416.286 C166.454,418.772 164.439,420.786 161.954,420.786 C159.468,420.786 157.454,418.772 157.454,416.286 C157.454,413.801 159.468,411.786 161.954,411.786 C164.439,411.786 166.454,413.801 166.454,416.286" fill="#EA9FBC"/>
    <path d="M168.954,397.286 C168.954,399.772 166.939,401.786 164.454,401.786 C161.968,401.786 159.954,399.772 159.954,397.286 C159.954,394.801 161.968,392.786 164.454,392.786 C166.939,392.786 168.954,394.801 168.954,397.286" fill="#EA9FBC"/>
    <path d="M129.454,397.286 C129.454,399.772 127.439,401.786 124.954,401.786 C122.468,401.786 120.454,399.772 120.454,397.286 C120.454,394.801 122.468,392.786 124.954,392.786 C127.439,392.786 129.454,394.801 129.454,397.286" fill="#EA9FBC"/>
    <path d="M237.954,418.286 C237.954,420.772 235.939,422.786 233.454,422.786 C230.968,422.786 228.954,420.772 228.954,418.286 C228.954,415.801 230.968,413.786 233.454,413.786 C235.939,413.786 237.954,415.801 237.954,418.286" fill="#EA9FBC"/>
    <path d="M282.454,437.786 C282.454,440.272 280.439,442.286 277.954,442.286 C275.468,442.286 273.454,440.272 273.454,437.786 C273.454,435.301 275.468,433.286 277.954,433.286 C280.439,433.286 282.454,435.301 282.454,437.786" fill="#FFF02E"/>
    <path d="M249.954,435.286 C249.954,437.772 247.939,439.786 245.454,439.786 C242.968,439.786 240.954,437.772 240.954,435.286 C240.954,432.801 242.968,430.786 245.454,430.786 C247.939,430.786 249.954,432.801 249.954,435.286" fill="#FFF02E"/>
    <path d="M215.454,419.286 C215.454,421.772 213.439,423.786 210.954,423.786 C208.468,423.786 206.454,421.772 206.454,419.286 C206.454,416.801 208.468,414.786 210.954,414.786 C213.439,414.786 215.454,416.801 215.454,419.286" fill="#FFF02E"/>
    <path d="M182.954,428.786 C182.954,431.272 180.939,433.286 178.454,433.286 C175.968,433.286 173.954,431.272 173.954,428.786 C173.954,426.301 175.968,424.286 178.454,424.286 C180.939,424.286 182.954,426.301 182.954,428.786" fill="#FFF02E"/>
    <path d="M131.454,413.286 C131.454,415.772 129.439,417.786 126.954,417.786 C124.468,417.786 122.454,415.772 122.454,413.286 C122.454,410.801 124.468,408.786 126.954,408.786 C129.439,408.786 131.454,410.801 131.454,413.286" fill="#FFF02E"/>
  </g>
</svg>
